<svg xmlns="http://www.w3.org/2000/svg" width="440" height="150" viewBox="0 0 440 150" shape-rendering="crispEdges" role="img">
<defs><filter id="pixglow" x="-25%" y="-25%" width="150%" height="150%"><feGaussianBlur stdDeviation="5"/></filter></defs>
<rect x="0" y="0" width="440" height="150" fill="#ffffff"/>
<rect x="40" y="42" width="30" height="30" fill="#d7dde7"/><rect x="78" y="44" width="200" height="10" fill="#d7dde7"/><rect x="78" y="62" width="140" height="10" fill="#eef1f6"/><rect x="78" y="80" width="244" height="10" fill="#eef1f6"/><rect x="78" y="104" width="72" height="20" fill="#d7dde7"/><rect x="158" y="104" width="54" height="20" fill="#eef1f6"/>
<rect x="12" y="13" width="4" height="4" fill="#ff0d0d"/><rect x="16" y="13" width="4" height="4" fill="#ff120d"/><rect x="20" y="13" width="4" height="4" fill="#ff180d"/><rect x="24" y="13" width="4" height="4" fill="#ff1d0d"/><rect x="28" y="13" width="4" height="4" fill="#ff230d"/><rect x="32" y="13" width="4" height="4" fill="#ff280d"/><rect x="36" y="13" width="4" height="4" fill="#ff2e0d"/><rect x="40" y="13" width="4" height="4" fill="#ff330d"/><rect x="44" y="13" width="4" height="4" fill="#ff380d"/><rect x="48" y="13" width="4" height="4" fill="#ff3e0d"/><rect x="52" y="13" width="4" height="4" fill="#ff430d"/><rect x="56" y="13" width="4" height="4" fill="#ff490d"/><rect x="60" y="13" width="4" height="4" fill="#ff4e0d"/><rect x="64" y="13" width="4" height="4" fill="#ff540d"/><rect x="68" y="13" width="4" height="4" fill="#ff590d"/><rect x="72" y="13" width="4" height="4" fill="#ff5f0d"/><rect x="76" y="13" width="4" height="4" fill="#ff640d"/><rect x="80" y="13" width="4" height="4" fill="#ff6a0d"/><rect x="84" y="13" width="4" height="4" fill="#ff6f0d"/><rect x="88" y="13" width="4" height="4" fill="#ff750d"/><rect x="92" y="13" width="4" height="4" fill="#ff7a0d"/><rect x="96" y="13" width="4" height="4" fill="#ff800d"/><rect x="100" y="13" width="4" height="4" fill="#ff850d"/><rect x="104" y="13" width="4" height="4" fill="#ff8a0d"/><rect x="108" y="13" width="4" height="4" fill="#ff900d"/><rect x="112" y="13" width="4" height="4" fill="#ff950d"/><rect x="116" y="13" width="4" height="4" fill="#ff9b0d"/><rect x="120" y="13" width="4" height="4" fill="#ffa00d"/><rect x="124" y="13" width="4" height="4" fill="#ffa60d"/><rect x="128" y="13" width="4" height="4" fill="#ffab0d"/><rect x="132" y="13" width="4" height="4" fill="#ffb10d"/><rect x="136" y="13" width="4" height="4" fill="#ffb60d"/><rect x="140" y="13" width="4" height="4" fill="#ffbc0d"/><rect x="144" y="13" width="4" height="4" fill="#ffc10d"/><rect x="148" y="13" width="4" height="4" fill="#ffc70d"/><rect x="152" y="13" width="4" height="4" fill="#ffcc0d"/><rect x="156" y="13" width="4" height="4" fill="#ffd10d"/><rect x="160" y="13" width="4" height="4" fill="#ffd70d"/><rect x="164" y="13" width="4" height="4" fill="#ffdc0d"/><rect x="168" y="13" width="4" height="4" fill="#ffe20d"/><rect x="172" y="13" width="4" height="4" fill="#ffe70d"/><rect x="176" y="13" width="4" height="4" fill="#ffed0d"/><rect x="180" y="13" width="4" height="4" fill="#fff20d"/><rect x="184" y="13" width="4" height="4" fill="#fff80d"/><rect x="188" y="13" width="4" height="4" fill="#fffd0d"/><rect x="192" y="13" width="4" height="4" fill="#fbff0d"/><rect x="196" y="13" width="4" height="4" fill="#f6ff0d"/><rect x="200" y="13" width="4" height="4" fill="#f0ff0d"/><rect x="204" y="13" width="4" height="4" fill="#ebff0d"/><rect x="208" y="13" width="4" height="4" fill="#e6ff0d"/><rect x="212" y="13" width="4" height="4" fill="#e0ff0d"/><rect x="216" y="13" width="4" height="4" fill="#dbff0d"/><rect x="220" y="13" width="4" height="4" fill="#d5ff0d"/><rect x="224" y="13" width="4" height="4" fill="#d0ff0d"/><rect x="228" y="13" width="4" height="4" fill="#caff0d"/><rect x="232" y="13" width="4" height="4" fill="#c5ff0d"/><rect x="236" y="13" width="4" height="4" fill="#bfff0d"/><rect x="240" y="13" width="4" height="4" fill="#baff0d"/><rect x="244" y="13" width="4" height="4" fill="#b4ff0d"/><rect x="248" y="13" width="4" height="4" fill="#afff0d"/><rect x="252" y="13" width="4" height="4" fill="#a9ff0d"/><rect x="256" y="13" width="4" height="4" fill="#a4ff0d"/><rect x="260" y="13" width="4" height="4" fill="#9eff0d"/><rect x="264" y="13" width="4" height="4" fill="#99ff0d"/><rect x="268" y="13" width="4" height="4" fill="#94ff0d"/><rect x="272" y="13" width="4" height="4" fill="#8eff0d"/><rect x="276" y="13" width="4" height="4" fill="#89ff0d"/><rect x="280" y="13" width="4" height="4" fill="#83ff0d"/><rect x="284" y="13" width="4" height="4" fill="#7eff0d"/><rect x="288" y="13" width="4" height="4" fill="#78ff0d"/><rect x="292" y="13" width="4" height="4" fill="#73ff0d"/><rect x="296" y="13" width="4" height="4" fill="#6dff0d"/><rect x="300" y="13" width="4" height="4" fill="#68ff0d"/><rect x="304" y="13" width="4" height="4" fill="#62ff0d"/><rect x="308" y="13" width="4" height="4" fill="#5dff0d"/><rect x="312" y="13" width="4" height="4" fill="#57ff0d"/><rect x="316" y="13" width="4" height="4" fill="#52ff0d"/><rect x="320" y="13" width="4" height="4" fill="#4cff0d"/><rect x="324" y="13" width="4" height="4" fill="#47ff0d"/><rect x="328" y="13" width="4" height="4" fill="#42ff0d"/><rect x="332" y="13" width="4" height="4" fill="#3cff0d"/><rect x="336" y="13" width="4" height="4" fill="#37ff0d"/><rect x="340" y="13" width="4" height="4" fill="#31ff0d"/><rect x="344" y="13" width="4" height="4" fill="#2cff0d"/><rect x="348" y="13" width="4" height="4" fill="#26ff0d"/><rect x="352" y="13" width="4" height="4" fill="#21ff0d"/><rect x="356" y="13" width="4" height="4" fill="#1bff0d"/><rect x="360" y="13" width="4" height="4" fill="#16ff0d"/><rect x="364" y="13" width="4" height="4" fill="#10ff0d"/><rect x="368" y="13" width="4" height="4" fill="#0dff0f"/><rect x="372" y="13" width="4" height="4" fill="#0dff14"/><rect x="376" y="13" width="4" height="4" fill="#0dff1a"/><rect x="380" y="13" width="4" height="4" fill="#0dff1f"/><rect x="384" y="13" width="4" height="4" fill="#0dff24"/><rect x="388" y="13" width="4" height="4" fill="#0dff2a"/><rect x="392" y="13" width="4" height="4" fill="#0dff2f"/><rect x="396" y="13" width="4" height="4" fill="#0dff35"/><rect x="400" y="13" width="4" height="4" fill="#0dff3a"/><rect x="404" y="13" width="4" height="4" fill="#0dff40"/><rect x="408" y="13" width="4" height="4" fill="#0dff45"/><rect x="412" y="13" width="4" height="4" fill="#0dff4b"/><rect x="416" y="13" width="4" height="4" fill="#0dff50"/><rect x="420" y="13" width="4" height="4" fill="#0dff56"/><rect x="424" y="13" width="4" height="4" fill="#0dff5b"/><rect x="424" y="17" width="4" height="4" fill="#0dff61"/><rect x="424" y="21" width="4" height="4" fill="#0dff66"/><rect x="424" y="25" width="4" height="4" fill="#0dff6b"/><rect x="424" y="29" width="4" height="4" fill="#0dff71"/><rect x="424" y="33" width="4" height="4" fill="#0dff76"/><rect x="424" y="37" width="4" height="4" fill="#0dff7c"/><rect x="424" y="41" width="4" height="4" fill="#0dff81"/><rect x="424" y="45" width="4" height="4" fill="#0dff87"/><rect x="424" y="49" width="4" height="4" fill="#0dff8c"/><rect x="424" y="53" width="4" height="4" fill="#0dff92"/><rect x="424" y="57" width="4" height="4" fill="#0dff97"/><rect x="424" y="61" width="4" height="4" fill="#0dff9d"/><rect x="424" y="65" width="4" height="4" fill="#0dffa2"/><rect x="424" y="69" width="4" height="4" fill="#0dffa8"/><rect x="424" y="73" width="4" height="4" fill="#0dffad"/><rect x="424" y="77" width="4" height="4" fill="#0dffb2"/><rect x="424" y="81" width="4" height="4" fill="#0dffb8"/><rect x="424" y="85" width="4" height="4" fill="#0dffbd"/><rect x="424" y="89" width="4" height="4" fill="#0dffc3"/><rect x="424" y="93" width="4" height="4" fill="#0dffc8"/><rect x="424" y="97" width="4" height="4" fill="#0dffce"/><rect x="424" y="101" width="4" height="4" fill="#0dffd3"/><rect x="424" y="105" width="4" height="4" fill="#0dffd9"/><rect x="424" y="109" width="4" height="4" fill="#0dffde"/><rect x="424" y="113" width="4" height="4" fill="#0dffe4"/><rect x="424" y="117" width="4" height="4" fill="#0dffe9"/><rect x="424" y="121" width="4" height="4" fill="#0dffef"/><rect x="424" y="125" width="4" height="4" fill="#0dfff4"/><rect x="424" y="129" width="4" height="4" fill="#0dfffa"/><rect x="424" y="133" width="4" height="4" fill="#0dffff"/><rect x="420" y="133" width="4" height="4" fill="#0dfaff"/><rect x="416" y="133" width="4" height="4" fill="#0df4ff"/><rect x="412" y="133" width="4" height="4" fill="#0defff"/><rect x="408" y="133" width="4" height="4" fill="#0de9ff"/><rect x="404" y="133" width="4" height="4" fill="#0de4ff"/><rect x="400" y="133" width="4" height="4" fill="#0ddeff"/><rect x="396" y="133" width="4" height="4" fill="#0dd9ff"/><rect x="392" y="133" width="4" height="4" fill="#0dd3ff"/><rect x="388" y="133" width="4" height="4" fill="#0dceff"/><rect x="384" y="133" width="4" height="4" fill="#0dc8ff"/><rect x="380" y="133" width="4" height="4" fill="#0dc3ff"/><rect x="376" y="133" width="4" height="4" fill="#0dbdff"/><rect x="372" y="133" width="4" height="4" fill="#0db8ff"/><rect x="368" y="133" width="4" height="4" fill="#0db2ff"/><rect x="364" y="133" width="4" height="4" fill="#0dadff"/><rect x="360" y="133" width="4" height="4" fill="#0da8ff"/><rect x="356" y="133" width="4" height="4" fill="#0da2ff"/><rect x="352" y="133" width="4" height="4" fill="#0d9dff"/><rect x="348" y="133" width="4" height="4" fill="#0d97ff"/><rect x="344" y="133" width="4" height="4" fill="#0d92ff"/><rect x="340" y="133" width="4" height="4" fill="#0d8cff"/><rect x="336" y="133" width="4" height="4" fill="#0d87ff"/><rect x="332" y="133" width="4" height="4" fill="#0d81ff"/><rect x="328" y="133" width="4" height="4" fill="#0d7cff"/><rect x="324" y="133" width="4" height="4" fill="#0d76ff"/><rect x="320" y="133" width="4" height="4" fill="#0d71ff"/><rect x="316" y="133" width="4" height="4" fill="#0d6bff"/><rect x="312" y="133" width="4" height="4" fill="#0d66ff"/><rect x="308" y="133" width="4" height="4" fill="#0d61ff"/><rect x="304" y="133" width="4" height="4" fill="#0d5bff"/><rect x="300" y="133" width="4" height="4" fill="#0d56ff"/><rect x="296" y="133" width="4" height="4" fill="#0d50ff"/><rect x="292" y="133" width="4" height="4" fill="#0d4bff"/><rect x="288" y="133" width="4" height="4" fill="#0d45ff"/><rect x="284" y="133" width="4" height="4" fill="#0d40ff"/><rect x="280" y="133" width="4" height="4" fill="#0d3aff"/><rect x="276" y="133" width="4" height="4" fill="#0d35ff"/><rect x="272" y="133" width="4" height="4" fill="#0d2fff"/><rect x="268" y="133" width="4" height="4" fill="#0d2aff"/><rect x="264" y="133" width="4" height="4" fill="#0d24ff"/><rect x="260" y="133" width="4" height="4" fill="#0d1fff"/><rect x="256" y="133" width="4" height="4" fill="#0d19ff"/><rect x="252" y="133" width="4" height="4" fill="#0d14ff"/><rect x="248" y="133" width="4" height="4" fill="#0d0fff"/><rect x="244" y="133" width="4" height="4" fill="#100dff"/><rect x="240" y="133" width="4" height="4" fill="#160dff"/><rect x="236" y="133" width="4" height="4" fill="#1b0dff"/><rect x="232" y="133" width="4" height="4" fill="#210dff"/><rect x="228" y="133" width="4" height="4" fill="#260dff"/><rect x="224" y="133" width="4" height="4" fill="#2c0dff"/><rect x="220" y="133" width="4" height="4" fill="#310dff"/><rect x="216" y="133" width="4" height="4" fill="#370dff"/><rect x="212" y="133" width="4" height="4" fill="#3c0dff"/><rect x="208" y="133" width="4" height="4" fill="#420dff"/><rect x="204" y="133" width="4" height="4" fill="#470dff"/><rect x="200" y="133" width="4" height="4" fill="#4d0dff"/><rect x="196" y="133" width="4" height="4" fill="#520dff"/><rect x="192" y="133" width="4" height="4" fill="#570dff"/><rect x="188" y="133" width="4" height="4" fill="#5d0dff"/><rect x="184" y="133" width="4" height="4" fill="#620dff"/><rect x="180" y="133" width="4" height="4" fill="#680dff"/><rect x="176" y="133" width="4" height="4" fill="#6d0dff"/><rect x="172" y="133" width="4" height="4" fill="#730dff"/><rect x="168" y="133" width="4" height="4" fill="#780dff"/><rect x="164" y="133" width="4" height="4" fill="#7e0dff"/><rect x="160" y="133" width="4" height="4" fill="#830dff"/><rect x="156" y="133" width="4" height="4" fill="#890dff"/><rect x="152" y="133" width="4" height="4" fill="#8e0dff"/><rect x="148" y="133" width="4" height="4" fill="#940dff"/><rect x="144" y="133" width="4" height="4" fill="#990dff"/><rect x="140" y="133" width="4" height="4" fill="#9e0dff"/><rect x="136" y="133" width="4" height="4" fill="#a40dff"/><rect x="132" y="133" width="4" height="4" fill="#a90dff"/><rect x="128" y="133" width="4" height="4" fill="#af0dff"/><rect x="124" y="133" width="4" height="4" fill="#b40dff"/><rect x="120" y="133" width="4" height="4" fill="#ba0dff"/><rect x="116" y="133" width="4" height="4" fill="#bf0dff"/><rect x="112" y="133" width="4" height="4" fill="#c50dff"/><rect x="108" y="133" width="4" height="4" fill="#ca0dff"/><rect x="104" y="133" width="4" height="4" fill="#d00dff"/><rect x="100" y="133" width="4" height="4" fill="#d50dff"/><rect x="96" y="133" width="4" height="4" fill="#db0dff"/><rect x="92" y="133" width="4" height="4" fill="#e00dff"/><rect x="88" y="133" width="4" height="4" fill="#e50dff"/><rect x="84" y="133" width="4" height="4" fill="#eb0dff"/><rect x="80" y="133" width="4" height="4" fill="#f00dff"/><rect x="76" y="133" width="4" height="4" fill="#f60dff"/><rect x="72" y="133" width="4" height="4" fill="#fb0dff"/><rect x="68" y="133" width="4" height="4" fill="#ff0dfd"/><rect x="64" y="133" width="4" height="4" fill="#ff0df8"/><rect x="60" y="133" width="4" height="4" fill="#ff0df2"/><rect x="56" y="133" width="4" height="4" fill="#ff0ded"/><rect x="52" y="133" width="4" height="4" fill="#ff0de7"/><rect x="48" y="133" width="4" height="4" fill="#ff0de2"/><rect x="44" y="133" width="4" height="4" fill="#ff0ddc"/><rect x="40" y="133" width="4" height="4" fill="#ff0dd7"/><rect x="36" y="133" width="4" height="4" fill="#ff0dd1"/><rect x="32" y="133" width="4" height="4" fill="#ff0dcc"/><rect x="28" y="133" width="4" height="4" fill="#ff0dc7"/><rect x="24" y="133" width="4" height="4" fill="#ff0dc1"/><rect x="20" y="133" width="4" height="4" fill="#ff0dbc"/><rect x="16" y="133" width="4" height="4" fill="#ff0db6"/><rect x="12" y="133" width="4" height="4" fill="#ff0db1"/><rect x="12" y="129" width="4" height="4" fill="#ff0dab"/><rect x="12" y="125" width="4" height="4" fill="#ff0da6"/><rect x="12" y="121" width="4" height="4" fill="#ff0da0"/><rect x="12" y="117" width="4" height="4" fill="#ff0d9b"/><rect x="12" y="113" width="4" height="4" fill="#ff0d95"/><rect x="12" y="109" width="4" height="4" fill="#ff0d90"/><rect x="12" y="105" width="4" height="4" fill="#ff0d8a"/><rect x="12" y="101" width="4" height="4" fill="#ff0d85"/><rect x="12" y="97" width="4" height="4" fill="#ff0d80"/><rect x="12" y="93" width="4" height="4" fill="#ff0d7a"/><rect x="12" y="89" width="4" height="4" fill="#ff0d75"/><rect x="12" y="85" width="4" height="4" fill="#ff0d6f"/><rect x="12" y="81" width="4" height="4" fill="#ff0d6a"/><rect x="12" y="77" width="4" height="4" fill="#ff0d64"/><rect x="12" y="73" width="4" height="4" fill="#ff0d5f"/><rect x="12" y="69" width="4" height="4" fill="#ff0d59"/><rect x="12" y="65" width="4" height="4" fill="#ff0d54"/><rect x="12" y="61" width="4" height="4" fill="#ff0d4e"/><rect x="12" y="57" width="4" height="4" fill="#ff0d49"/><rect x="12" y="53" width="4" height="4" fill="#ff0d43"/><rect x="12" y="49" width="4" height="4" fill="#ff0d3e"/><rect x="12" y="45" width="4" height="4" fill="#ff0d38"/><rect x="12" y="41" width="4" height="4" fill="#ff0d33"/><rect x="12" y="37" width="4" height="4" fill="#ff0d2e"/><rect x="12" y="33" width="4" height="4" fill="#ff0d28"/><rect x="12" y="29" width="4" height="4" fill="#ff0d23"/><rect x="12" y="25" width="4" height="4" fill="#ff0d1d"/><rect x="12" y="21" width="4" height="4" fill="#ff0d18"/><rect x="12" y="17" width="4" height="4" fill="#ff0d12"/>
</svg>
