<svg xmlns="http://www.w3.org/2000/svg" width="440" height="150" viewBox="0 0 440 150" shape-rendering="crispEdges" role="img">
<defs><filter id="pixglow" x="-25%" y="-25%" width="150%" height="150%"><feGaussianBlur stdDeviation="5"/></filter></defs>
<rect x="0" y="0" width="440" height="150" fill="#ffffff"/>
<rect x="40" y="42" width="30" height="30" fill="#d7dde7"/><rect x="78" y="44" width="200" height="10" fill="#d7dde7"/><rect x="78" y="62" width="140" height="10" fill="#eef1f6"/><rect x="78" y="80" width="244" height="10" fill="#eef1f6"/><rect x="78" y="104" width="72" height="20" fill="#d7dde7"/><rect x="158" y="104" width="54" height="20" fill="#eef1f6"/>
<rect x="14" y="17" width="4" height="4" fill="#ff0d0d"/><rect x="22" y="17" width="4" height="4" fill="#ff180d"/><rect x="30" y="17" width="4" height="4" fill="#ff230d"/><rect x="38" y="17" width="4" height="4" fill="#ff2e0d"/><rect x="46" y="17" width="4" height="4" fill="#ff390d"/><rect x="54" y="17" width="4" height="4" fill="#ff450d"/><rect x="62" y="17" width="4" height="4" fill="#ff500d"/><rect x="70" y="17" width="4" height="4" fill="#ff5b0d"/><rect x="78" y="17" width="4" height="4" fill="#ff660d"/><rect x="86" y="17" width="4" height="4" fill="#ff710d"/><rect x="94" y="17" width="4" height="4" fill="#ff7d0d"/><rect x="102" y="17" width="4" height="4" fill="#ff880d"/><rect x="110" y="17" width="4" height="4" fill="#ff930d"/><rect x="118" y="17" width="4" height="4" fill="#ff9e0d"/><rect x="126" y="17" width="4" height="4" fill="#ffa90d"/><rect x="134" y="17" width="4" height="4" fill="#ffb40d"/><rect x="142" y="17" width="4" height="4" fill="#ffc00d"/><rect x="150" y="17" width="4" height="4" fill="#ffcb0d"/><rect x="158" y="17" width="4" height="4" fill="#ffd60d"/><rect x="166" y="17" width="4" height="4" fill="#ffe10d"/><rect x="174" y="17" width="4" height="4" fill="#ffec0d"/><rect x="182" y="17" width="4" height="4" fill="#fff80d"/><rect x="190" y="17" width="4" height="4" fill="#fbff0d"/><rect x="198" y="17" width="4" height="4" fill="#f0ff0d"/><rect x="206" y="17" width="4" height="4" fill="#e5ff0d"/><rect x="214" y="17" width="4" height="4" fill="#daff0d"/><rect x="222" y="17" width="4" height="4" fill="#cfff0d"/><rect x="230" y="17" width="4" height="4" fill="#c3ff0d"/><rect x="238" y="17" width="4" height="4" fill="#b8ff0d"/><rect x="246" y="17" width="4" height="4" fill="#adff0d"/><rect x="254" y="17" width="4" height="4" fill="#a2ff0d"/><rect x="262" y="17" width="4" height="4" fill="#97ff0d"/><rect x="270" y="17" width="4" height="4" fill="#8bff0d"/><rect x="278" y="17" width="4" height="4" fill="#80ff0d"/><rect x="286" y="17" width="4" height="4" fill="#75ff0d"/><rect x="294" y="17" width="4" height="4" fill="#6aff0d"/><rect x="302" y="17" width="4" height="4" fill="#5fff0d"/><rect x="310" y="17" width="4" height="4" fill="#54ff0d"/><rect x="318" y="17" width="4" height="4" fill="#48ff0d"/><rect x="326" y="17" width="4" height="4" fill="#3dff0d"/><rect x="334" y="17" width="4" height="4" fill="#32ff0d"/><rect x="342" y="17" width="4" height="4" fill="#27ff0d"/><rect x="350" y="17" width="4" height="4" fill="#1cff0d"/><rect x="358" y="17" width="4" height="4" fill="#10ff0d"/><rect x="366" y="17" width="4" height="4" fill="#0dff14"/><rect x="374" y="17" width="4" height="4" fill="#0dff1f"/><rect x="382" y="17" width="4" height="4" fill="#0dff2b"/><rect x="390" y="17" width="4" height="4" fill="#0dff36"/><rect x="398" y="17" width="4" height="4" fill="#0dff41"/><rect x="406" y="17" width="4" height="4" fill="#0dff4c"/><rect x="414" y="17" width="4" height="4" fill="#0dff57"/><rect x="422" y="17" width="4" height="4" fill="#0dff62"/><rect x="422" y="25" width="4" height="4" fill="#0dff6e"/><rect x="422" y="33" width="4" height="4" fill="#0dff79"/><rect x="422" y="41" width="4" height="4" fill="#0dff84"/><rect x="422" y="49" width="4" height="4" fill="#0dff8f"/><rect x="422" y="57" width="4" height="4" fill="#0dff9a"/><rect x="422" y="65" width="4" height="4" fill="#0dffa6"/><rect x="422" y="73" width="4" height="4" fill="#0dffb1"/><rect x="422" y="81" width="4" height="4" fill="#0dffbc"/><rect x="422" y="89" width="4" height="4" fill="#0dffc7"/><rect x="422" y="97" width="4" height="4" fill="#0dffd2"/><rect x="422" y="105" width="4" height="4" fill="#0dffdd"/><rect x="422" y="113" width="4" height="4" fill="#0dffe9"/><rect x="422" y="121" width="4" height="4" fill="#0dfff4"/><rect x="422" y="129" width="4" height="4" fill="#0dffff"/><rect x="414" y="129" width="4" height="4" fill="#0df4ff"/><rect x="406" y="129" width="4" height="4" fill="#0de9ff"/><rect x="398" y="129" width="4" height="4" fill="#0dddff"/><rect x="390" y="129" width="4" height="4" fill="#0dd2ff"/><rect x="382" y="129" width="4" height="4" fill="#0dc7ff"/><rect x="374" y="129" width="4" height="4" fill="#0dbcff"/><rect x="366" y="129" width="4" height="4" fill="#0db1ff"/><rect x="358" y="129" width="4" height="4" fill="#0da6ff"/><rect x="350" y="129" width="4" height="4" fill="#0d9aff"/><rect x="342" y="129" width="4" height="4" fill="#0d8fff"/><rect x="334" y="129" width="4" height="4" fill="#0d84ff"/><rect x="326" y="129" width="4" height="4" fill="#0d79ff"/><rect x="318" y="129" width="4" height="4" fill="#0d6eff"/><rect x="310" y="129" width="4" height="4" fill="#0d62ff"/><rect x="302" y="129" width="4" height="4" fill="#0d57ff"/><rect x="294" y="129" width="4" height="4" fill="#0d4cff"/><rect x="286" y="129" width="4" height="4" fill="#0d41ff"/><rect x="278" y="129" width="4" height="4" fill="#0d36ff"/><rect x="270" y="129" width="4" height="4" fill="#0d2bff"/><rect x="262" y="129" width="4" height="4" fill="#0d1fff"/><rect x="254" y="129" width="4" height="4" fill="#0d14ff"/><rect x="246" y="129" width="4" height="4" fill="#100dff"/><rect x="238" y="129" width="4" height="4" fill="#1c0dff"/><rect x="230" y="129" width="4" height="4" fill="#270dff"/><rect x="222" y="129" width="4" height="4" fill="#320dff"/><rect x="214" y="129" width="4" height="4" fill="#3d0dff"/><rect x="206" y="129" width="4" height="4" fill="#480dff"/><rect x="198" y="129" width="4" height="4" fill="#540dff"/><rect x="190" y="129" width="4" height="4" fill="#5f0dff"/><rect x="182" y="129" width="4" height="4" fill="#6a0dff"/><rect x="174" y="129" width="4" height="4" fill="#750dff"/><rect x="166" y="129" width="4" height="4" fill="#800dff"/><rect x="158" y="129" width="4" height="4" fill="#8b0dff"/><rect x="150" y="129" width="4" height="4" fill="#970dff"/><rect x="142" y="129" width="4" height="4" fill="#a20dff"/><rect x="134" y="129" width="4" height="4" fill="#ad0dff"/><rect x="126" y="129" width="4" height="4" fill="#b80dff"/><rect x="118" y="129" width="4" height="4" fill="#c30dff"/><rect x="110" y="129" width="4" height="4" fill="#cf0dff"/><rect x="102" y="129" width="4" height="4" fill="#da0dff"/><rect x="94" y="129" width="4" height="4" fill="#e50dff"/><rect x="86" y="129" width="4" height="4" fill="#f00dff"/><rect x="78" y="129" width="4" height="4" fill="#fb0dff"/><rect x="70" y="129" width="4" height="4" fill="#ff0df8"/><rect x="62" y="129" width="4" height="4" fill="#ff0dec"/><rect x="54" y="129" width="4" height="4" fill="#ff0de1"/><rect x="46" y="129" width="4" height="4" fill="#ff0dd6"/><rect x="38" y="129" width="4" height="4" fill="#ff0dcb"/><rect x="30" y="129" width="4" height="4" fill="#ff0dc0"/><rect x="22" y="129" width="4" height="4" fill="#ff0db4"/><rect x="14" y="129" width="4" height="4" fill="#ff0da9"/><rect x="14" y="121" width="4" height="4" fill="#ff0d9e"/><rect x="14" y="113" width="4" height="4" fill="#ff0d93"/><rect x="14" y="105" width="4" height="4" fill="#ff0d88"/><rect x="14" y="97" width="4" height="4" fill="#ff0d7d"/><rect x="14" y="89" width="4" height="4" fill="#ff0d71"/><rect x="14" y="81" width="4" height="4" fill="#ff0d66"/><rect x="14" y="73" width="4" height="4" fill="#ff0d5b"/><rect x="14" y="65" width="4" height="4" fill="#ff0d50"/><rect x="14" y="57" width="4" height="4" fill="#ff0d45"/><rect x="14" y="49" width="4" height="4" fill="#ff0d39"/><rect x="14" y="41" width="4" height="4" fill="#ff0d2e"/><rect x="14" y="33" width="4" height="4" fill="#ff0d23"/><rect x="14" y="25" width="4" height="4" fill="#ff0d18"/>
</svg>
