<svg xmlns="http://www.w3.org/2000/svg" width="1200" height="320" viewBox="0 0 1200 320" role="img">
<defs><linearGradient id="rock" x1="0" y1="0" x2="1" y2="0"><stop offset="0%" stop-color="#ffd93d"/><stop offset="50%" stop-color="#ff2e88"/><stop offset="100%" stop-color="#00e5ff"/></linearGradient></defs>
<rect width="1200" height="320" fill="#0b0f1e"/>
<g opacity="0.06"><rect x="0" y="0" width="1" height="320" fill="#00e5ff"/><rect x="24" y="0" width="1" height="320" fill="#00e5ff"/><rect x="48" y="0" width="1" height="320" fill="#00e5ff"/><rect x="72" y="0" width="1" height="320" fill="#00e5ff"/><rect x="96" y="0" width="1" height="320" fill="#00e5ff"/><rect x="120" y="0" width="1" height="320" fill="#00e5ff"/><rect x="144" y="0" width="1" height="320" fill="#00e5ff"/><rect x="168" y="0" width="1" height="320" fill="#00e5ff"/><rect x="192" y="0" width="1" height="320" fill="#00e5ff"/><rect x="216" y="0" width="1" height="320" fill="#00e5ff"/><rect x="240" y="0" width="1" height="320" fill="#00e5ff"/><rect x="264" y="0" width="1" height="320" fill="#00e5ff"/><rect x="288" y="0" width="1" height="320" fill="#00e5ff"/><rect x="312" y="0" width="1" height="320" fill="#00e5ff"/><rect x="336" y="0" width="1" height="320" fill="#00e5ff"/><rect x="360" y="0" width="1" height="320" fill="#00e5ff"/><rect x="384" y="0" width="1" height="320" fill="#00e5ff"/><rect x="408" y="0" width="1" height="320" fill="#00e5ff"/><rect x="432" y="0" width="1" height="320" fill="#00e5ff"/><rect x="456" y="0" width="1" height="320" fill="#00e5ff"/><rect x="480" y="0" width="1" height="320" fill="#00e5ff"/><rect x="504" y="0" width="1" height="320" fill="#00e5ff"/><rect x="528" y="0" width="1" height="320" fill="#00e5ff"/><rect x="552" y="0" width="1" height="320" fill="#00e5ff"/><rect x="576" y="0" width="1" height="320" fill="#00e5ff"/><rect x="600" y="0" width="1" height="320" fill="#00e5ff"/><rect x="624" y="0" width="1" height="320" fill="#00e5ff"/><rect x="648" y="0" width="1" height="320" fill="#00e5ff"/><rect x="672" y="0" width="1" height="320" fill="#00e5ff"/><rect x="696" y="0" width="1" height="320" fill="#00e5ff"/><rect x="720" y="0" width="1" height="320" fill="#00e5ff"/><rect x="744" y="0" width="1" height="320" fill="#00e5ff"/><rect x="768" y="0" width="1" height="320" fill="#00e5ff"/><rect x="792" y="0" width="1" height="320" fill="#00e5ff"/><rect x="816" y="0" width="1" height="320" fill="#00e5ff"/><rect x="840" y="0" width="1" height="320" fill="#00e5ff"/><rect x="864" y="0" width="1" height="320" fill="#00e5ff"/><rect x="888" y="0" width="1" height="320" fill="#00e5ff"/><rect x="912" y="0" width="1" height="320" fill="#00e5ff"/><rect x="936" y="0" width="1" height="320" fill="#00e5ff"/><rect x="960" y="0" width="1" height="320" fill="#00e5ff"/><rect x="984" y="0" width="1" height="320" fill="#00e5ff"/><rect x="1008" y="0" width="1" height="320" fill="#00e5ff"/><rect x="1032" y="0" width="1" height="320" fill="#00e5ff"/><rect x="1056" y="0" width="1" height="320" fill="#00e5ff"/><rect x="1080" y="0" width="1" height="320" fill="#00e5ff"/><rect x="1104" y="0" width="1" height="320" fill="#00e5ff"/><rect x="1128" y="0" width="1" height="320" fill="#00e5ff"/><rect x="1152" y="0" width="1" height="320" fill="#00e5ff"/><rect x="1176" y="0" width="1" height="320" fill="#00e5ff"/><rect x="0" y="0" width="1200" height="1" fill="#00e5ff"/><rect x="0" y="24" width="1200" height="1" fill="#00e5ff"/><rect x="0" y="48" width="1200" height="1" fill="#00e5ff"/><rect x="0" y="72" width="1200" height="1" fill="#00e5ff"/><rect x="0" y="96" width="1200" height="1" fill="#00e5ff"/><rect x="0" y="120" width="1200" height="1" fill="#00e5ff"/><rect x="0" y="144" width="1200" height="1" fill="#00e5ff"/><rect x="0" y="168" width="1200" height="1" fill="#00e5ff"/><rect x="0" y="192" width="1200" height="1" fill="#00e5ff"/><rect x="0" y="216" width="1200" height="1" fill="#00e5ff"/><rect x="0" y="240" width="1200" height="1" fill="#00e5ff"/><rect x="0" y="264" width="1200" height="1" fill="#00e5ff"/><rect x="0" y="288" width="1200" height="1" fill="#00e5ff"/><rect x="0" y="312" width="1200" height="1" fill="#00e5ff"/></g>
<rect x="6" y="6" width="1188" height="308" fill="none" stroke="#00e5ff" stroke-width="3" opacity="0.55"/>
<rect x="16" y="16" width="1168" height="288" fill="none" stroke="#ff2e88" stroke-width="1" opacity="0.35"/>
<g opacity="0.9"><rect x="82" y="96" width="30" height="10" fill="#ffd93d"/><rect x="72" y="106" width="30" height="10" fill="#ffd93d"/><rect x="72" y="116" width="30" height="10" fill="#ffd93d"/><rect x="62" y="126" width="50" height="10" fill="#ffd93d"/><rect x="82" y="136" width="30" height="10" fill="#ffd93d"/><rect x="72" y="146" width="30" height="10" fill="#ffd93d"/><rect x="72" y="156" width="30" height="10" fill="#ffd93d"/><rect x="72" y="166" width="20" height="10" fill="#ffd93d"/><rect x="72" y="176" width="10" height="10" fill="#ffd93d"/><rect x="1108" y="96" width="30" height="10" fill="#ffd93d"/><rect x="1098" y="106" width="30" height="10" fill="#ffd93d"/><rect x="1098" y="116" width="30" height="10" fill="#ffd93d"/><rect x="1088" y="126" width="50" height="10" fill="#ffd93d"/><rect x="1108" y="136" width="30" height="10" fill="#ffd93d"/><rect x="1098" y="146" width="30" height="10" fill="#ffd93d"/><rect x="1098" y="156" width="30" height="10" fill="#ffd93d"/><rect x="1098" y="166" width="20" height="10" fill="#ffd93d"/><rect x="1098" y="176" width="10" height="10" fill="#ffd93d"/></g>
<rect x="181" y="52" width="65" height="13" fill="#131a33"/><rect x="259" y="52" width="13" height="13" fill="#131a33"/><rect x="311" y="52" width="13" height="13" fill="#131a33"/><rect x="337" y="52" width="52" height="13" fill="#131a33"/><rect x="415" y="52" width="13" height="13" fill="#131a33"/><rect x="506" y="52" width="39" height="13" fill="#131a33"/><rect x="571" y="52" width="52" height="13" fill="#131a33"/><rect x="649" y="52" width="65" height="13" fill="#131a33"/><rect x="740" y="52" width="39" height="13" fill="#131a33"/><rect x="818" y="52" width="39" height="13" fill="#131a33"/><rect x="883" y="52" width="13" height="13" fill="#131a33"/><rect x="974" y="52" width="39" height="13" fill="#131a33"/><rect x="181" y="65" width="13" height="13" fill="#131a33"/><rect x="259" y="65" width="13" height="13" fill="#131a33"/><rect x="311" y="65" width="13" height="13" fill="#131a33"/><rect x="337" y="65" width="13" height="13" fill="#131a33"/><rect x="389" y="65" width="13" height="13" fill="#131a33"/><rect x="415" y="65" width="13" height="13" fill="#131a33"/><rect x="493" y="65" width="13" height="13" fill="#131a33"/><rect x="545" y="65" width="13" height="13" fill="#131a33"/><rect x="571" y="65" width="13" height="13" fill="#131a33"/><rect x="623" y="65" width="13" height="13" fill="#131a33"/><rect x="649" y="65" width="13" height="13" fill="#131a33"/><rect x="727" y="65" width="13" height="13" fill="#131a33"/><rect x="779" y="65" width="13" height="13" fill="#131a33"/><rect x="805" y="65" width="13" height="13" fill="#131a33"/><rect x="857" y="65" width="13" height="13" fill="#131a33"/><rect x="883" y="65" width="13" height="13" fill="#131a33"/><rect x="961" y="65" width="13" height="13" fill="#131a33"/><rect x="1013" y="65" width="13" height="13" fill="#131a33"/><rect x="181" y="78" width="13" height="13" fill="#131a33"/><rect x="272" y="78" width="13" height="13" fill="#131a33"/><rect x="298" y="78" width="13" height="13" fill="#131a33"/><rect x="337" y="78" width="13" height="13" fill="#131a33"/><rect x="389" y="78" width="13" height="13" fill="#131a33"/><rect x="415" y="78" width="13" height="13" fill="#131a33"/><rect x="493" y="78" width="13" height="13" fill="#131a33"/><rect x="545" y="78" width="13" height="13" fill="#131a33"/><rect x="571" y="78" width="13" height="13" fill="#131a33"/><rect x="623" y="78" width="13" height="13" fill="#131a33"/><rect x="649" y="78" width="13" height="13" fill="#131a33"/><rect x="727" y="78" width="13" height="13" fill="#131a33"/><rect x="805" y="78" width="13" height="13" fill="#131a33"/><rect x="857" y="78" width="13" height="13" fill="#131a33"/><rect x="883" y="78" width="13" height="13" fill="#131a33"/><rect x="961" y="78" width="13" height="13" fill="#131a33"/><rect x="1013" y="78" width="13" height="13" fill="#131a33"/><rect x="181" y="91" width="52" height="13" fill="#131a33"/><rect x="285" y="91" width="13" height="13" fill="#131a33"/><rect x="337" y="91" width="52" height="13" fill="#131a33"/><rect x="415" y="91" width="13" height="13" fill="#131a33"/><rect x="493" y="91" width="13" height="13" fill="#131a33"/><rect x="545" y="91" width="13" height="13" fill="#131a33"/><rect x="571" y="91" width="13" height="13" fill="#131a33"/><rect x="623" y="91" width="13" height="13" fill="#131a33"/><rect x="649" y="91" width="52" height="13" fill="#131a33"/><rect x="727" y="91" width="13" height="13" fill="#131a33"/><rect x="805" y="91" width="13" height="13" fill="#131a33"/><rect x="857" y="91" width="13" height="13" fill="#131a33"/><rect x="883" y="91" width="13" height="13" fill="#131a33"/><rect x="961" y="91" width="65" height="13" fill="#131a33"/><rect x="181" y="104" width="13" height="13" fill="#131a33"/><rect x="272" y="104" width="13" height="13" fill="#131a33"/><rect x="298" y="104" width="13" height="13" fill="#131a33"/><rect x="337" y="104" width="13" height="13" fill="#131a33"/><rect x="415" y="104" width="13" height="13" fill="#131a33"/><rect x="493" y="104" width="13" height="13" fill="#131a33"/><rect x="545" y="104" width="13" height="13" fill="#131a33"/><rect x="571" y="104" width="13" height="13" fill="#131a33"/><rect x="623" y="104" width="13" height="13" fill="#131a33"/><rect x="649" y="104" width="13" height="13" fill="#131a33"/><rect x="727" y="104" width="13" height="13" fill="#131a33"/><rect x="805" y="104" width="13" height="13" fill="#131a33"/><rect x="857" y="104" width="13" height="13" fill="#131a33"/><rect x="883" y="104" width="13" height="13" fill="#131a33"/><rect x="961" y="104" width="13" height="13" fill="#131a33"/><rect x="1013" y="104" width="13" height="13" fill="#131a33"/><rect x="181" y="117" width="13" height="13" fill="#131a33"/><rect x="259" y="117" width="13" height="13" fill="#131a33"/><rect x="311" y="117" width="13" height="13" fill="#131a33"/><rect x="337" y="117" width="13" height="13" fill="#131a33"/><rect x="415" y="117" width="13" height="13" fill="#131a33"/><rect x="493" y="117" width="13" height="13" fill="#131a33"/><rect x="545" y="117" width="13" height="13" fill="#131a33"/><rect x="571" y="117" width="13" height="13" fill="#131a33"/><rect x="623" y="117" width="13" height="13" fill="#131a33"/><rect x="649" y="117" width="13" height="13" fill="#131a33"/><rect x="727" y="117" width="13" height="13" fill="#131a33"/><rect x="779" y="117" width="13" height="13" fill="#131a33"/><rect x="805" y="117" width="13" height="13" fill="#131a33"/><rect x="857" y="117" width="13" height="13" fill="#131a33"/><rect x="883" y="117" width="13" height="13" fill="#131a33"/><rect x="961" y="117" width="13" height="13" fill="#131a33"/><rect x="1013" y="117" width="13" height="13" fill="#131a33"/><rect x="181" y="130" width="65" height="13" fill="#131a33"/><rect x="259" y="130" width="13" height="13" fill="#131a33"/><rect x="311" y="130" width="13" height="13" fill="#131a33"/><rect x="337" y="130" width="13" height="13" fill="#131a33"/><rect x="415" y="130" width="65" height="13" fill="#131a33"/><rect x="506" y="130" width="39" height="13" fill="#131a33"/><rect x="571" y="130" width="52" height="13" fill="#131a33"/><rect x="649" y="130" width="65" height="13" fill="#131a33"/><rect x="740" y="130" width="39" height="13" fill="#131a33"/><rect x="818" y="130" width="39" height="13" fill="#131a33"/><rect x="883" y="130" width="65" height="13" fill="#131a33"/><rect x="961" y="130" width="13" height="13" fill="#131a33"/><rect x="1013" y="130" width="13" height="13" fill="#131a33"/>
<rect x="177" y="48" width="65" height="13" fill="url(#rock)"/><rect x="255" y="48" width="13" height="13" fill="url(#rock)"/><rect x="307" y="48" width="13" height="13" fill="url(#rock)"/><rect x="333" y="48" width="52" height="13" fill="url(#rock)"/><rect x="411" y="48" width="13" height="13" fill="url(#rock)"/><rect x="502" y="48" width="39" height="13" fill="url(#rock)"/><rect x="567" y="48" width="52" height="13" fill="url(#rock)"/><rect x="645" y="48" width="65" height="13" fill="url(#rock)"/><rect x="736" y="48" width="39" height="13" fill="url(#rock)"/><rect x="814" y="48" width="39" height="13" fill="url(#rock)"/><rect x="879" y="48" width="13" height="13" fill="url(#rock)"/><rect x="970" y="48" width="39" height="13" fill="url(#rock)"/><rect x="177" y="61" width="13" height="13" fill="url(#rock)"/><rect x="255" y="61" width="13" height="13" fill="url(#rock)"/><rect x="307" y="61" width="13" height="13" fill="url(#rock)"/><rect x="333" y="61" width="13" height="13" fill="url(#rock)"/><rect x="385" y="61" width="13" height="13" fill="url(#rock)"/><rect x="411" y="61" width="13" height="13" fill="url(#rock)"/><rect x="489" y="61" width="13" height="13" fill="url(#rock)"/><rect x="541" y="61" width="13" height="13" fill="url(#rock)"/><rect x="567" y="61" width="13" height="13" fill="url(#rock)"/><rect x="619" y="61" width="13" height="13" fill="url(#rock)"/><rect x="645" y="61" width="13" height="13" fill="url(#rock)"/><rect x="723" y="61" width="13" height="13" fill="url(#rock)"/><rect x="775" y="61" width="13" height="13" fill="url(#rock)"/><rect x="801" y="61" width="13" height="13" fill="url(#rock)"/><rect x="853" y="61" width="13" height="13" fill="url(#rock)"/><rect x="879" y="61" width="13" height="13" fill="url(#rock)"/><rect x="957" y="61" width="13" height="13" fill="url(#rock)"/><rect x="1009" y="61" width="13" height="13" fill="url(#rock)"/><rect x="177" y="74" width="13" height="13" fill="url(#rock)"/><rect x="268" y="74" width="13" height="13" fill="url(#rock)"/><rect x="294" y="74" width="13" height="13" fill="url(#rock)"/><rect x="333" y="74" width="13" height="13" fill="url(#rock)"/><rect x="385" y="74" width="13" height="13" fill="url(#rock)"/><rect x="411" y="74" width="13" height="13" fill="url(#rock)"/><rect x="489" y="74" width="13" height="13" fill="url(#rock)"/><rect x="541" y="74" width="13" height="13" fill="url(#rock)"/><rect x="567" y="74" width="13" height="13" fill="url(#rock)"/><rect x="619" y="74" width="13" height="13" fill="url(#rock)"/><rect x="645" y="74" width="13" height="13" fill="url(#rock)"/><rect x="723" y="74" width="13" height="13" fill="url(#rock)"/><rect x="801" y="74" width="13" height="13" fill="url(#rock)"/><rect x="853" y="74" width="13" height="13" fill="url(#rock)"/><rect x="879" y="74" width="13" height="13" fill="url(#rock)"/><rect x="957" y="74" width="13" height="13" fill="url(#rock)"/><rect x="1009" y="74" width="13" height="13" fill="url(#rock)"/><rect x="177" y="87" width="52" height="13" fill="url(#rock)"/><rect x="281" y="87" width="13" height="13" fill="url(#rock)"/><rect x="333" y="87" width="52" height="13" fill="url(#rock)"/><rect x="411" y="87" width="13" height="13" fill="url(#rock)"/><rect x="489" y="87" width="13" height="13" fill="url(#rock)"/><rect x="541" y="87" width="13" height="13" fill="url(#rock)"/><rect x="567" y="87" width="13" height="13" fill="url(#rock)"/><rect x="619" y="87" width="13" height="13" fill="url(#rock)"/><rect x="645" y="87" width="52" height="13" fill="url(#rock)"/><rect x="723" y="87" width="13" height="13" fill="url(#rock)"/><rect x="801" y="87" width="13" height="13" fill="url(#rock)"/><rect x="853" y="87" width="13" height="13" fill="url(#rock)"/><rect x="879" y="87" width="13" height="13" fill="url(#rock)"/><rect x="957" y="87" width="65" height="13" fill="url(#rock)"/><rect x="177" y="100" width="13" height="13" fill="url(#rock)"/><rect x="268" y="100" width="13" height="13" fill="url(#rock)"/><rect x="294" y="100" width="13" height="13" fill="url(#rock)"/><rect x="333" y="100" width="13" height="13" fill="url(#rock)"/><rect x="411" y="100" width="13" height="13" fill="url(#rock)"/><rect x="489" y="100" width="13" height="13" fill="url(#rock)"/><rect x="541" y="100" width="13" height="13" fill="url(#rock)"/><rect x="567" y="100" width="13" height="13" fill="url(#rock)"/><rect x="619" y="100" width="13" height="13" fill="url(#rock)"/><rect x="645" y="100" width="13" height="13" fill="url(#rock)"/><rect x="723" y="100" width="13" height="13" fill="url(#rock)"/><rect x="801" y="100" width="13" height="13" fill="url(#rock)"/><rect x="853" y="100" width="13" height="13" fill="url(#rock)"/><rect x="879" y="100" width="13" height="13" fill="url(#rock)"/><rect x="957" y="100" width="13" height="13" fill="url(#rock)"/><rect x="1009" y="100" width="13" height="13" fill="url(#rock)"/><rect x="177" y="113" width="13" height="13" fill="url(#rock)"/><rect x="255" y="113" width="13" height="13" fill="url(#rock)"/><rect x="307" y="113" width="13" height="13" fill="url(#rock)"/><rect x="333" y="113" width="13" height="13" fill="url(#rock)"/><rect x="411" y="113" width="13" height="13" fill="url(#rock)"/><rect x="489" y="113" width="13" height="13" fill="url(#rock)"/><rect x="541" y="113" width="13" height="13" fill="url(#rock)"/><rect x="567" y="113" width="13" height="13" fill="url(#rock)"/><rect x="619" y="113" width="13" height="13" fill="url(#rock)"/><rect x="645" y="113" width="13" height="13" fill="url(#rock)"/><rect x="723" y="113" width="13" height="13" fill="url(#rock)"/><rect x="775" y="113" width="13" height="13" fill="url(#rock)"/><rect x="801" y="113" width="13" height="13" fill="url(#rock)"/><rect x="853" y="113" width="13" height="13" fill="url(#rock)"/><rect x="879" y="113" width="13" height="13" fill="url(#rock)"/><rect x="957" y="113" width="13" height="13" fill="url(#rock)"/><rect x="1009" y="113" width="13" height="13" fill="url(#rock)"/><rect x="177" y="126" width="65" height="13" fill="url(#rock)"/><rect x="255" y="126" width="13" height="13" fill="url(#rock)"/><rect x="307" y="126" width="13" height="13" fill="url(#rock)"/><rect x="333" y="126" width="13" height="13" fill="url(#rock)"/><rect x="411" y="126" width="65" height="13" fill="url(#rock)"/><rect x="502" y="126" width="39" height="13" fill="url(#rock)"/><rect x="567" y="126" width="52" height="13" fill="url(#rock)"/><rect x="645" y="126" width="65" height="13" fill="url(#rock)"/><rect x="736" y="126" width="39" height="13" fill="url(#rock)"/><rect x="814" y="126" width="39" height="13" fill="url(#rock)"/><rect x="879" y="126" width="65" height="13" fill="url(#rock)"/><rect x="957" y="126" width="13" height="13" fill="url(#rock)"/><rect x="1009" y="126" width="13" height="13" fill="url(#rock)"/>
<rect x="303" y="173" width="18" height="6" fill="#00e5ff"/><rect x="369" y="173" width="24" height="6" fill="#00e5ff"/><rect x="405" y="173" width="30" height="6" fill="#00e5ff"/><rect x="441" y="173" width="30" height="6" fill="#00e5ff"/><rect x="513" y="173" width="24" height="6" fill="#00e5ff"/><rect x="555" y="173" width="18" height="6" fill="#00e5ff"/><rect x="591" y="173" width="18" height="6" fill="#00e5ff"/><rect x="621" y="173" width="6" height="6" fill="#00e5ff"/><rect x="645" y="173" width="6" height="6" fill="#00e5ff"/><rect x="699" y="173" width="12" height="6" fill="#00e5ff"/><rect x="771" y="173" width="18" height="6" fill="#00e5ff"/><rect x="807" y="173" width="18" height="6" fill="#00e5ff"/><rect x="837" y="173" width="24" height="6" fill="#00e5ff"/><rect x="873" y="173" width="30" height="6" fill="#00e5ff"/><rect x="297" y="179" width="6" height="6" fill="#00e5ff"/><rect x="321" y="179" width="6" height="6" fill="#00e5ff"/><rect x="369" y="179" width="6" height="6" fill="#00e5ff"/><rect x="393" y="179" width="6" height="6" fill="#00e5ff"/><rect x="417" y="179" width="6" height="6" fill="#00e5ff"/><rect x="453" y="179" width="6" height="6" fill="#00e5ff"/><rect x="513" y="179" width="6" height="6" fill="#00e5ff"/><rect x="537" y="179" width="6" height="6" fill="#00e5ff"/><rect x="549" y="179" width="6" height="6" fill="#00e5ff"/><rect x="573" y="179" width="6" height="6" fill="#00e5ff"/><rect x="585" y="179" width="6" height="6" fill="#00e5ff"/><rect x="609" y="179" width="6" height="6" fill="#00e5ff"/><rect x="621" y="179" width="6" height="6" fill="#00e5ff"/><rect x="639" y="179" width="6" height="6" fill="#00e5ff"/><rect x="693" y="179" width="6" height="6" fill="#00e5ff"/><rect x="711" y="179" width="6" height="6" fill="#00e5ff"/><rect x="765" y="179" width="6" height="6" fill="#00e5ff"/><rect x="789" y="179" width="6" height="6" fill="#00e5ff"/><rect x="801" y="179" width="6" height="6" fill="#00e5ff"/><rect x="825" y="179" width="6" height="6" fill="#00e5ff"/><rect x="837" y="179" width="6" height="6" fill="#00e5ff"/><rect x="861" y="179" width="6" height="6" fill="#00e5ff"/><rect x="873" y="179" width="6" height="6" fill="#00e5ff"/><rect x="297" y="185" width="6" height="6" fill="#00e5ff"/><rect x="321" y="185" width="6" height="6" fill="#00e5ff"/><rect x="369" y="185" width="6" height="6" fill="#00e5ff"/><rect x="393" y="185" width="6" height="6" fill="#00e5ff"/><rect x="417" y="185" width="6" height="6" fill="#00e5ff"/><rect x="453" y="185" width="6" height="6" fill="#00e5ff"/><rect x="513" y="185" width="6" height="6" fill="#00e5ff"/><rect x="537" y="185" width="6" height="6" fill="#00e5ff"/><rect x="549" y="185" width="6" height="6" fill="#00e5ff"/><rect x="573" y="185" width="6" height="6" fill="#00e5ff"/><rect x="585" y="185" width="6" height="6" fill="#00e5ff"/><rect x="621" y="185" width="6" height="6" fill="#00e5ff"/><rect x="633" y="185" width="6" height="6" fill="#00e5ff"/><rect x="693" y="185" width="6" height="6" fill="#00e5ff"/><rect x="711" y="185" width="6" height="6" fill="#00e5ff"/><rect x="765" y="185" width="6" height="6" fill="#00e5ff"/><rect x="801" y="185" width="6" height="6" fill="#00e5ff"/><rect x="825" y="185" width="6" height="6" fill="#00e5ff"/><rect x="837" y="185" width="6" height="6" fill="#00e5ff"/><rect x="861" y="185" width="6" height="6" fill="#00e5ff"/><rect x="873" y="185" width="6" height="6" fill="#00e5ff"/><rect x="303" y="191" width="18" height="6" fill="#00e5ff"/><rect x="333" y="191" width="30" height="6" fill="#00e5ff"/><rect x="369" y="191" width="24" height="6" fill="#00e5ff"/><rect x="417" y="191" width="6" height="6" fill="#00e5ff"/><rect x="453" y="191" width="6" height="6" fill="#00e5ff"/><rect x="513" y="191" width="24" height="6" fill="#00e5ff"/><rect x="549" y="191" width="6" height="6" fill="#00e5ff"/><rect x="573" y="191" width="6" height="6" fill="#00e5ff"/><rect x="585" y="191" width="6" height="6" fill="#00e5ff"/><rect x="621" y="191" width="12" height="6" fill="#00e5ff"/><rect x="699" y="191" width="12" height="6" fill="#00e5ff"/><rect x="765" y="191" width="6" height="6" fill="#00e5ff"/><rect x="801" y="191" width="6" height="6" fill="#00e5ff"/><rect x="825" y="191" width="6" height="6" fill="#00e5ff"/><rect x="837" y="191" width="6" height="6" fill="#00e5ff"/><rect x="861" y="191" width="6" height="6" fill="#00e5ff"/><rect x="873" y="191" width="24" height="6" fill="#00e5ff"/><rect x="297" y="197" width="6" height="6" fill="#00e5ff"/><rect x="321" y="197" width="6" height="6" fill="#00e5ff"/><rect x="369" y="197" width="6" height="6" fill="#00e5ff"/><rect x="393" y="197" width="6" height="6" fill="#00e5ff"/><rect x="417" y="197" width="6" height="6" fill="#00e5ff"/><rect x="453" y="197" width="6" height="6" fill="#00e5ff"/><rect x="513" y="197" width="6" height="6" fill="#00e5ff"/><rect x="525" y="197" width="6" height="6" fill="#00e5ff"/><rect x="549" y="197" width="6" height="6" fill="#00e5ff"/><rect x="573" y="197" width="6" height="6" fill="#00e5ff"/><rect x="585" y="197" width="6" height="6" fill="#00e5ff"/><rect x="621" y="197" width="6" height="6" fill="#00e5ff"/><rect x="633" y="197" width="6" height="6" fill="#00e5ff"/><rect x="693" y="197" width="6" height="6" fill="#00e5ff"/><rect x="705" y="197" width="6" height="6" fill="#00e5ff"/><rect x="717" y="197" width="6" height="6" fill="#00e5ff"/><rect x="765" y="197" width="6" height="6" fill="#00e5ff"/><rect x="801" y="197" width="6" height="6" fill="#00e5ff"/><rect x="825" y="197" width="6" height="6" fill="#00e5ff"/><rect x="837" y="197" width="6" height="6" fill="#00e5ff"/><rect x="861" y="197" width="6" height="6" fill="#00e5ff"/><rect x="873" y="197" width="6" height="6" fill="#00e5ff"/><rect x="297" y="203" width="6" height="6" fill="#00e5ff"/><rect x="321" y="203" width="6" height="6" fill="#00e5ff"/><rect x="369" y="203" width="6" height="6" fill="#00e5ff"/><rect x="393" y="203" width="6" height="6" fill="#00e5ff"/><rect x="417" y="203" width="6" height="6" fill="#00e5ff"/><rect x="453" y="203" width="6" height="6" fill="#00e5ff"/><rect x="513" y="203" width="6" height="6" fill="#00e5ff"/><rect x="531" y="203" width="6" height="6" fill="#00e5ff"/><rect x="549" y="203" width="6" height="6" fill="#00e5ff"/><rect x="573" y="203" width="6" height="6" fill="#00e5ff"/><rect x="585" y="203" width="6" height="6" fill="#00e5ff"/><rect x="609" y="203" width="6" height="6" fill="#00e5ff"/><rect x="621" y="203" width="6" height="6" fill="#00e5ff"/><rect x="639" y="203" width="6" height="6" fill="#00e5ff"/><rect x="693" y="203" width="6" height="6" fill="#00e5ff"/><rect x="711" y="203" width="6" height="6" fill="#00e5ff"/><rect x="765" y="203" width="6" height="6" fill="#00e5ff"/><rect x="789" y="203" width="6" height="6" fill="#00e5ff"/><rect x="801" y="203" width="6" height="6" fill="#00e5ff"/><rect x="825" y="203" width="6" height="6" fill="#00e5ff"/><rect x="837" y="203" width="6" height="6" fill="#00e5ff"/><rect x="861" y="203" width="6" height="6" fill="#00e5ff"/><rect x="873" y="203" width="6" height="6" fill="#00e5ff"/><rect x="303" y="209" width="18" height="6" fill="#00e5ff"/><rect x="369" y="209" width="24" height="6" fill="#00e5ff"/><rect x="405" y="209" width="30" height="6" fill="#00e5ff"/><rect x="453" y="209" width="6" height="6" fill="#00e5ff"/><rect x="513" y="209" width="6" height="6" fill="#00e5ff"/><rect x="537" y="209" width="6" height="6" fill="#00e5ff"/><rect x="555" y="209" width="18" height="6" fill="#00e5ff"/><rect x="591" y="209" width="18" height="6" fill="#00e5ff"/><rect x="621" y="209" width="6" height="6" fill="#00e5ff"/><rect x="645" y="209" width="6" height="6" fill="#00e5ff"/><rect x="699" y="209" width="12" height="6" fill="#00e5ff"/><rect x="717" y="209" width="6" height="6" fill="#00e5ff"/><rect x="771" y="209" width="18" height="6" fill="#00e5ff"/><rect x="807" y="209" width="18" height="6" fill="#00e5ff"/><rect x="837" y="209" width="24" height="6" fill="#00e5ff"/><rect x="873" y="209" width="30" height="6" fill="#00e5ff"/>
<g fill="#ff2e88"><rect x="326" y="245" width="16" height="4" fill="#ff2e88"/><rect x="350" y="245" width="16" height="4" fill="#ff2e88"/><rect x="374" y="245" width="20" height="4" fill="#ff2e88"/><rect x="402" y="245" width="16" height="4" fill="#ff2e88"/><rect x="426" y="245" width="16" height="4" fill="#ff2e88"/><rect x="474" y="245" width="16" height="4" fill="#ff2e88"/><rect x="494" y="245" width="20" height="4" fill="#ff2e88"/><rect x="522" y="245" width="12" height="4" fill="#ff2e88"/><rect x="542" y="245" width="16" height="4" fill="#ff2e88"/><rect x="566" y="245" width="20" height="4" fill="#ff2e88"/><rect x="614" y="245" width="20" height="4" fill="#ff2e88"/><rect x="642" y="245" width="12" height="4" fill="#ff2e88"/><rect x="690" y="245" width="12" height="4" fill="#ff2e88"/><rect x="714" y="245" width="12" height="4" fill="#ff2e88"/><rect x="734" y="245" width="4" height="4" fill="#ff2e88"/><rect x="750" y="245" width="4" height="4" fill="#ff2e88"/><rect x="758" y="245" width="20" height="4" fill="#ff2e88"/><rect x="782" y="245" width="20" height="4" fill="#ff2e88"/><rect x="806" y="245" width="4" height="4" fill="#ff2e88"/><rect x="822" y="245" width="4" height="4" fill="#ff2e88"/><rect x="830" y="245" width="4" height="4" fill="#ff2e88"/><rect x="846" y="245" width="4" height="4" fill="#ff2e88"/><rect x="854" y="245" width="20" height="4" fill="#ff2e88"/><rect x="326" y="249" width="4" height="4" fill="#ff2e88"/><rect x="342" y="249" width="4" height="4" fill="#ff2e88"/><rect x="350" y="249" width="4" height="4" fill="#ff2e88"/><rect x="366" y="249" width="4" height="4" fill="#ff2e88"/><rect x="374" y="249" width="4" height="4" fill="#ff2e88"/><rect x="398" y="249" width="4" height="4" fill="#ff2e88"/><rect x="422" y="249" width="4" height="4" fill="#ff2e88"/><rect x="470" y="249" width="4" height="4" fill="#ff2e88"/><rect x="502" y="249" width="4" height="4" fill="#ff2e88"/><rect x="518" y="249" width="4" height="4" fill="#ff2e88"/><rect x="534" y="249" width="4" height="4" fill="#ff2e88"/><rect x="542" y="249" width="4" height="4" fill="#ff2e88"/><rect x="558" y="249" width="4" height="4" fill="#ff2e88"/><rect x="574" y="249" width="4" height="4" fill="#ff2e88"/><rect x="622" y="249" width="4" height="4" fill="#ff2e88"/><rect x="638" y="249" width="4" height="4" fill="#ff2e88"/><rect x="654" y="249" width="4" height="4" fill="#ff2e88"/><rect x="686" y="249" width="4" height="4" fill="#ff2e88"/><rect x="702" y="249" width="4" height="4" fill="#ff2e88"/><rect x="710" y="249" width="4" height="4" fill="#ff2e88"/><rect x="726" y="249" width="4" height="4" fill="#ff2e88"/><rect x="734" y="249" width="8" height="4" fill="#ff2e88"/><rect x="750" y="249" width="4" height="4" fill="#ff2e88"/><rect x="766" y="249" width="4" height="4" fill="#ff2e88"/><rect x="790" y="249" width="4" height="4" fill="#ff2e88"/><rect x="806" y="249" width="8" height="4" fill="#ff2e88"/><rect x="822" y="249" width="4" height="4" fill="#ff2e88"/><rect x="830" y="249" width="4" height="4" fill="#ff2e88"/><rect x="846" y="249" width="4" height="4" fill="#ff2e88"/><rect x="854" y="249" width="4" height="4" fill="#ff2e88"/><rect x="326" y="253" width="4" height="4" fill="#ff2e88"/><rect x="342" y="253" width="4" height="4" fill="#ff2e88"/><rect x="350" y="253" width="4" height="4" fill="#ff2e88"/><rect x="366" y="253" width="4" height="4" fill="#ff2e88"/><rect x="374" y="253" width="4" height="4" fill="#ff2e88"/><rect x="398" y="253" width="4" height="4" fill="#ff2e88"/><rect x="422" y="253" width="4" height="4" fill="#ff2e88"/><rect x="470" y="253" width="4" height="4" fill="#ff2e88"/><rect x="502" y="253" width="4" height="4" fill="#ff2e88"/><rect x="518" y="253" width="4" height="4" fill="#ff2e88"/><rect x="534" y="253" width="4" height="4" fill="#ff2e88"/><rect x="542" y="253" width="4" height="4" fill="#ff2e88"/><rect x="558" y="253" width="4" height="4" fill="#ff2e88"/><rect x="574" y="253" width="4" height="4" fill="#ff2e88"/><rect x="622" y="253" width="4" height="4" fill="#ff2e88"/><rect x="638" y="253" width="4" height="4" fill="#ff2e88"/><rect x="654" y="253" width="4" height="4" fill="#ff2e88"/><rect x="686" y="253" width="4" height="4" fill="#ff2e88"/><rect x="710" y="253" width="4" height="4" fill="#ff2e88"/><rect x="726" y="253" width="4" height="4" fill="#ff2e88"/><rect x="734" y="253" width="4" height="4" fill="#ff2e88"/><rect x="742" y="253" width="4" height="4" fill="#ff2e88"/><rect x="750" y="253" width="4" height="4" fill="#ff2e88"/><rect x="766" y="253" width="4" height="4" fill="#ff2e88"/><rect x="790" y="253" width="4" height="4" fill="#ff2e88"/><rect x="806" y="253" width="4" height="4" fill="#ff2e88"/><rect x="814" y="253" width="4" height="4" fill="#ff2e88"/><rect x="822" y="253" width="4" height="4" fill="#ff2e88"/><rect x="830" y="253" width="4" height="4" fill="#ff2e88"/><rect x="846" y="253" width="4" height="4" fill="#ff2e88"/><rect x="854" y="253" width="4" height="4" fill="#ff2e88"/><rect x="326" y="257" width="16" height="4" fill="#ff2e88"/><rect x="350" y="257" width="16" height="4" fill="#ff2e88"/><rect x="374" y="257" width="16" height="4" fill="#ff2e88"/><rect x="402" y="257" width="12" height="4" fill="#ff2e88"/><rect x="426" y="257" width="12" height="4" fill="#ff2e88"/><rect x="474" y="257" width="12" height="4" fill="#ff2e88"/><rect x="502" y="257" width="4" height="4" fill="#ff2e88"/><rect x="518" y="257" width="20" height="4" fill="#ff2e88"/><rect x="542" y="257" width="16" height="4" fill="#ff2e88"/><rect x="574" y="257" width="4" height="4" fill="#ff2e88"/><rect x="622" y="257" width="4" height="4" fill="#ff2e88"/><rect x="638" y="257" width="4" height="4" fill="#ff2e88"/><rect x="654" y="257" width="4" height="4" fill="#ff2e88"/><rect x="686" y="257" width="4" height="4" fill="#ff2e88"/><rect x="710" y="257" width="4" height="4" fill="#ff2e88"/><rect x="726" y="257" width="4" height="4" fill="#ff2e88"/><rect x="734" y="257" width="4" height="4" fill="#ff2e88"/><rect x="746" y="257" width="8" height="4" fill="#ff2e88"/><rect x="766" y="257" width="4" height="4" fill="#ff2e88"/><rect x="790" y="257" width="4" height="4" fill="#ff2e88"/><rect x="806" y="257" width="4" height="4" fill="#ff2e88"/><rect x="818" y="257" width="8" height="4" fill="#ff2e88"/><rect x="830" y="257" width="4" height="4" fill="#ff2e88"/><rect x="846" y="257" width="4" height="4" fill="#ff2e88"/><rect x="854" y="257" width="16" height="4" fill="#ff2e88"/><rect x="326" y="261" width="4" height="4" fill="#ff2e88"/><rect x="350" y="261" width="4" height="4" fill="#ff2e88"/><rect x="358" y="261" width="4" height="4" fill="#ff2e88"/><rect x="374" y="261" width="4" height="4" fill="#ff2e88"/><rect x="414" y="261" width="4" height="4" fill="#ff2e88"/><rect x="438" y="261" width="4" height="4" fill="#ff2e88"/><rect x="486" y="261" width="4" height="4" fill="#ff2e88"/><rect x="502" y="261" width="4" height="4" fill="#ff2e88"/><rect x="518" y="261" width="4" height="4" fill="#ff2e88"/><rect x="534" y="261" width="4" height="4" fill="#ff2e88"/><rect x="542" y="261" width="4" height="4" fill="#ff2e88"/><rect x="550" y="261" width="4" height="4" fill="#ff2e88"/><rect x="574" y="261" width="4" height="4" fill="#ff2e88"/><rect x="622" y="261" width="4" height="4" fill="#ff2e88"/><rect x="638" y="261" width="4" height="4" fill="#ff2e88"/><rect x="654" y="261" width="4" height="4" fill="#ff2e88"/><rect x="686" y="261" width="4" height="4" fill="#ff2e88"/><rect x="710" y="261" width="4" height="4" fill="#ff2e88"/><rect x="726" y="261" width="4" height="4" fill="#ff2e88"/><rect x="734" y="261" width="4" height="4" fill="#ff2e88"/><rect x="750" y="261" width="4" height="4" fill="#ff2e88"/><rect x="766" y="261" width="4" height="4" fill="#ff2e88"/><rect x="790" y="261" width="4" height="4" fill="#ff2e88"/><rect x="806" y="261" width="4" height="4" fill="#ff2e88"/><rect x="822" y="261" width="4" height="4" fill="#ff2e88"/><rect x="830" y="261" width="4" height="4" fill="#ff2e88"/><rect x="846" y="261" width="4" height="4" fill="#ff2e88"/><rect x="854" y="261" width="4" height="4" fill="#ff2e88"/><rect x="326" y="265" width="4" height="4" fill="#ff2e88"/><rect x="350" y="265" width="4" height="4" fill="#ff2e88"/><rect x="362" y="265" width="4" height="4" fill="#ff2e88"/><rect x="374" y="265" width="4" height="4" fill="#ff2e88"/><rect x="414" y="265" width="4" height="4" fill="#ff2e88"/><rect x="438" y="265" width="4" height="4" fill="#ff2e88"/><rect x="486" y="265" width="4" height="4" fill="#ff2e88"/><rect x="502" y="265" width="4" height="4" fill="#ff2e88"/><rect x="518" y="265" width="4" height="4" fill="#ff2e88"/><rect x="534" y="265" width="4" height="4" fill="#ff2e88"/><rect x="542" y="265" width="4" height="4" fill="#ff2e88"/><rect x="554" y="265" width="4" height="4" fill="#ff2e88"/><rect x="574" y="265" width="4" height="4" fill="#ff2e88"/><rect x="622" y="265" width="4" height="4" fill="#ff2e88"/><rect x="638" y="265" width="4" height="4" fill="#ff2e88"/><rect x="654" y="265" width="4" height="4" fill="#ff2e88"/><rect x="686" y="265" width="4" height="4" fill="#ff2e88"/><rect x="702" y="265" width="4" height="4" fill="#ff2e88"/><rect x="710" y="265" width="4" height="4" fill="#ff2e88"/><rect x="726" y="265" width="4" height="4" fill="#ff2e88"/><rect x="734" y="265" width="4" height="4" fill="#ff2e88"/><rect x="750" y="265" width="4" height="4" fill="#ff2e88"/><rect x="766" y="265" width="4" height="4" fill="#ff2e88"/><rect x="790" y="265" width="4" height="4" fill="#ff2e88"/><rect x="806" y="265" width="4" height="4" fill="#ff2e88"/><rect x="822" y="265" width="4" height="4" fill="#ff2e88"/><rect x="830" y="265" width="4" height="4" fill="#ff2e88"/><rect x="846" y="265" width="4" height="4" fill="#ff2e88"/><rect x="854" y="265" width="4" height="4" fill="#ff2e88"/><rect x="326" y="269" width="4" height="4" fill="#ff2e88"/><rect x="350" y="269" width="4" height="4" fill="#ff2e88"/><rect x="366" y="269" width="4" height="4" fill="#ff2e88"/><rect x="374" y="269" width="20" height="4" fill="#ff2e88"/><rect x="398" y="269" width="16" height="4" fill="#ff2e88"/><rect x="422" y="269" width="16" height="4" fill="#ff2e88"/><rect x="470" y="269" width="16" height="4" fill="#ff2e88"/><rect x="502" y="269" width="4" height="4" fill="#ff2e88"/><rect x="518" y="269" width="4" height="4" fill="#ff2e88"/><rect x="534" y="269" width="4" height="4" fill="#ff2e88"/><rect x="542" y="269" width="4" height="4" fill="#ff2e88"/><rect x="558" y="269" width="4" height="4" fill="#ff2e88"/><rect x="574" y="269" width="4" height="4" fill="#ff2e88"/><rect x="622" y="269" width="4" height="4" fill="#ff2e88"/><rect x="642" y="269" width="12" height="4" fill="#ff2e88"/><rect x="690" y="269" width="12" height="4" fill="#ff2e88"/><rect x="714" y="269" width="12" height="4" fill="#ff2e88"/><rect x="734" y="269" width="4" height="4" fill="#ff2e88"/><rect x="750" y="269" width="4" height="4" fill="#ff2e88"/><rect x="766" y="269" width="4" height="4" fill="#ff2e88"/><rect x="782" y="269" width="20" height="4" fill="#ff2e88"/><rect x="806" y="269" width="4" height="4" fill="#ff2e88"/><rect x="822" y="269" width="4" height="4" fill="#ff2e88"/><rect x="834" y="269" width="12" height="4" fill="#ff2e88"/><rect x="854" y="269" width="20" height="4" fill="#ff2e88"/><animate attributeName="opacity" values="1;1;0.4;0.4;1" dur="1.6s" repeatCount="indefinite"/></g>
<g opacity="0.05"><rect x="0" y="0" width="1200" height="1" fill="#ffffff"/><rect x="0" y="4" width="1200" height="1" fill="#ffffff"/><rect x="0" y="8" width="1200" height="1" fill="#ffffff"/><rect x="0" y="12" width="1200" height="1" fill="#ffffff"/><rect x="0" y="16" width="1200" height="1" fill="#ffffff"/><rect x="0" y="20" width="1200" height="1" fill="#ffffff"/><rect x="0" y="24" width="1200" height="1" fill="#ffffff"/><rect x="0" y="28" width="1200" height="1" fill="#ffffff"/><rect x="0" y="32" width="1200" height="1" fill="#ffffff"/><rect x="0" y="36" width="1200" height="1" fill="#ffffff"/><rect x="0" y="40" width="1200" height="1" fill="#ffffff"/><rect x="0" y="44" width="1200" height="1" fill="#ffffff"/><rect x="0" y="48" width="1200" height="1" fill="#ffffff"/><rect x="0" y="52" width="1200" height="1" fill="#ffffff"/><rect x="0" y="56" width="1200" height="1" fill="#ffffff"/><rect x="0" y="60" width="1200" height="1" fill="#ffffff"/><rect x="0" y="64" width="1200" height="1" fill="#ffffff"/><rect x="0" y="68" width="1200" height="1" fill="#ffffff"/><rect x="0" y="72" width="1200" height="1" fill="#ffffff"/><rect x="0" y="76" width="1200" height="1" fill="#ffffff"/><rect x="0" y="80" width="1200" height="1" fill="#ffffff"/><rect x="0" y="84" width="1200" height="1" fill="#ffffff"/><rect x="0" y="88" width="1200" height="1" fill="#ffffff"/><rect x="0" y="92" width="1200" height="1" fill="#ffffff"/><rect x="0" y="96" width="1200" height="1" fill="#ffffff"/><rect x="0" y="100" width="1200" height="1" fill="#ffffff"/><rect x="0" y="104" width="1200" height="1" fill="#ffffff"/><rect x="0" y="108" width="1200" height="1" fill="#ffffff"/><rect x="0" y="112" width="1200" height="1" fill="#ffffff"/><rect x="0" y="116" width="1200" height="1" fill="#ffffff"/><rect x="0" y="120" width="1200" height="1" fill="#ffffff"/><rect x="0" y="124" width="1200" height="1" fill="#ffffff"/><rect x="0" y="128" width="1200" height="1" fill="#ffffff"/><rect x="0" y="132" width="1200" height="1" fill="#ffffff"/><rect x="0" y="136" width="1200" height="1" fill="#ffffff"/><rect x="0" y="140" width="1200" height="1" fill="#ffffff"/><rect x="0" y="144" width="1200" height="1" fill="#ffffff"/><rect x="0" y="148" width="1200" height="1" fill="#ffffff"/><rect x="0" y="152" width="1200" height="1" fill="#ffffff"/><rect x="0" y="156" width="1200" height="1" fill="#ffffff"/><rect x="0" y="160" width="1200" height="1" fill="#ffffff"/><rect x="0" y="164" width="1200" height="1" fill="#ffffff"/><rect x="0" y="168" width="1200" height="1" fill="#ffffff"/><rect x="0" y="172" width="1200" height="1" fill="#ffffff"/><rect x="0" y="176" width="1200" height="1" fill="#ffffff"/><rect x="0" y="180" width="1200" height="1" fill="#ffffff"/><rect x="0" y="184" width="1200" height="1" fill="#ffffff"/><rect x="0" y="188" width="1200" height="1" fill="#ffffff"/><rect x="0" y="192" width="1200" height="1" fill="#ffffff"/><rect x="0" y="196" width="1200" height="1" fill="#ffffff"/><rect x="0" y="200" width="1200" height="1" fill="#ffffff"/><rect x="0" y="204" width="1200" height="1" fill="#ffffff"/><rect x="0" y="208" width="1200" height="1" fill="#ffffff"/><rect x="0" y="212" width="1200" height="1" fill="#ffffff"/><rect x="0" y="216" width="1200" height="1" fill="#ffffff"/><rect x="0" y="220" width="1200" height="1" fill="#ffffff"/><rect x="0" y="224" width="1200" height="1" fill="#ffffff"/><rect x="0" y="228" width="1200" height="1" fill="#ffffff"/><rect x="0" y="232" width="1200" height="1" fill="#ffffff"/><rect x="0" y="236" width="1200" height="1" fill="#ffffff"/><rect x="0" y="240" width="1200" height="1" fill="#ffffff"/><rect x="0" y="244" width="1200" height="1" fill="#ffffff"/><rect x="0" y="248" width="1200" height="1" fill="#ffffff"/><rect x="0" y="252" width="1200" height="1" fill="#ffffff"/><rect x="0" y="256" width="1200" height="1" fill="#ffffff"/><rect x="0" y="260" width="1200" height="1" fill="#ffffff"/><rect x="0" y="264" width="1200" height="1" fill="#ffffff"/><rect x="0" y="268" width="1200" height="1" fill="#ffffff"/><rect x="0" y="272" width="1200" height="1" fill="#ffffff"/><rect x="0" y="276" width="1200" height="1" fill="#ffffff"/><rect x="0" y="280" width="1200" height="1" fill="#ffffff"/><rect x="0" y="284" width="1200" height="1" fill="#ffffff"/><rect x="0" y="288" width="1200" height="1" fill="#ffffff"/><rect x="0" y="292" width="1200" height="1" fill="#ffffff"/><rect x="0" y="296" width="1200" height="1" fill="#ffffff"/><rect x="0" y="300" width="1200" height="1" fill="#ffffff"/><rect x="0" y="304" width="1200" height="1" fill="#ffffff"/><rect x="0" y="308" width="1200" height="1" fill="#ffffff"/><rect x="0" y="312" width="1200" height="1" fill="#ffffff"/><rect x="0" y="316" width="1200" height="1" fill="#ffffff"/></g>
</svg>
